<?xml version="1.0" encoding="UTF-8"?>
<svg version="1.1" xmlns="http://www.w3.org/2000/svg" viewBox="0 0 280 280" width="100%">
<path d="M0 0 C0.66 0 1.32 0 2 0 C2.51832397 1.29973755 2.51832397 1.29973755 3.04711914 2.62573242 C13.71430824 29.36659406 24.46646517 56.07230825 35.38671875 82.7109375 C35.75893555 83.61897125 36.13115234 84.527005 36.51464844 85.46255493 C36.88928223 86.37644989 37.26391602 87.29034485 37.64990234 88.23193359 C38.412442 90.09211948 39.17497453 91.95230829 39.9375 93.8125 C40.50564423 95.19831268 40.50564423 95.19831268 41.08526611 96.61212158 C46.83420395 110.64065504 52.49927226 124.70066931 58.10995483 138.78500366 C63.0822406 151.26274299 68.13682995 163.70435391 73.25 176.125 C81.4126552 195.95644048 89.4440903 215.83741891 97.25 235.8125 C97.53818604 236.54831299 97.82637207 237.28412598 98.12329102 238.04223633 C100 242.87821026 100 242.87821026 100 244 C34.66 244 -30.68 244 -98 244 C-91.25373918 226.00997114 -91.25373918 226.00997114 -88.80078125 219.99609375 C-88.52846176 219.32644089 -88.25614227 218.65678802 -87.97557068 217.96684265 C-87.39306505 216.53506655 -86.80960452 215.1036786 -86.22521973 213.67266846 C-84.93105375 210.50337247 -83.64199718 207.33200414 -82.35244751 204.16082764 C-81.6562191 202.44885511 -80.95974307 200.73698327 -80.26303101 199.02520752 C-76.47407877 189.7144827 -72.70730687 180.39481815 -68.94174194 171.07461548 C-67.74437668 168.11108202 -66.54667641 165.14768416 -65.34887695 162.18432617 C-61.63649028 152.99967969 -57.92504461 143.81465328 -54.21424866 134.62936401 C-52.14309108 129.50280482 -50.07163015 124.37636825 -48 119.25 C-47.5999173 118.25993958 -47.19983459 117.26987915 -46.78762817 116.24981689 C-41.67107588 103.58962478 -36.53992475 90.9356386 -31.37841797 78.29370117 C-28.64132368 71.5869974 -25.94004491 64.86706844 -23.26171875 58.13671875 C-22.01492322 55.03710015 -20.73237319 51.95480609 -19.4375 48.875 C-17.26193741 43.68979332 -15.24436418 38.45337806 -13.2421875 33.19921875 C-12.08331891 30.2145855 -10.86993122 27.26209195 -9.625 24.3125 C-6.24045946 16.27827117 -3.13595289 8.13359539 0 0 Z " fill="#4a4a4a" transform="translate(139,16)"/>
<path d="M0 0 C1.853181 2.7797715 3.00349398 5.23780698 4.25 8.3203125 C4.68812012 9.39949951 5.12624023 10.47868652 5.57763672 11.59057617 C6.0470166 12.75693604 6.51639648 13.9232959 7 15.125 C7.49129395 16.33841064 7.98258789 17.55182129 8.48876953 18.80200195 C12.0540428 27.61256871 15.58144864 36.43834949 19.10327148 45.26635742 C22.92038437 54.8257808 26.79374859 64.36206511 30.67333984 73.89624023 C33.93512152 81.9131342 37.1889331 89.93319055 40.43359375 97.95703125 C40.81226089 98.8933287 41.19092804 99.82962616 41.58106995 100.79429626 C43.08798967 104.52061694 44.59480264 108.24698005 46.10037231 111.97384644 C46.80900347 113.72796338 47.51793466 115.48195916 48.22718811 117.23582458 C48.89955941 118.89885296 49.57108324 120.56222427 50.24168396 122.22596741 C51.67561714 125.77470811 53.12313276 129.31392807 54.64453125 132.82617188 C55.11246094 133.90962891 55.58039063 134.99308594 56.0625 136.109375 C56.46597656 137.02170898 56.86945313 137.93404297 57.28515625 138.87402344 C57.63900391 139.92638184 57.63900391 139.92638184 58 141 C57.67 141.66 57.34 142.32 57 143 C56.21238281 142.030625 55.42476563 141.06125 54.61328125 140.0625 C54.09362793 139.42296387 53.57397461 138.78342773 53.03857422 138.12451172 C51.87208651 136.68875839 50.70574926 135.2528828 49.53955078 133.81689453 C46.57276445 130.16418276 43.60403867 126.51310574 40.62890625 122.8671875 C35.48586353 116.55956633 30.3769885 110.23274889 25.375 103.8125 C21.3495161 98.64825192 17.19111903 93.61886866 12.93774414 88.64111328 C8.84732817 83.84852782 4.89922445 78.94944536 1 74 C-2.37920199 75.41472014 -4.03475475 76.99807254 -6.1875 79.9375 C-8.76746007 83.37381046 -11.39367299 86.74481471 -14.125 90.0625 C-18.40639374 95.27273849 -22.6644645 100.50139183 -26.91381836 105.73779297 C-29.72751934 109.20463811 -32.54464573 112.66853582 -35.37109375 116.125 C-46.68597651 128.9058595 -46.68597651 128.9058595 -56 143 C-56.66 142.67 -57.32 142.34 -58 142 C-57.63463135 141.09910645 -57.2692627 140.19821289 -56.89282227 139.27001953 C-53.35883091 130.55584343 -49.82599102 121.84120126 -46.29402161 113.12620544 C-44.17442793 107.89648453 -42.05365383 102.66724469 -39.93182373 97.43843079 C-38.22440951 93.23018149 -36.51834464 89.02138573 -34.8125 84.8125 C-34.4683606 83.96372284 -34.12422119 83.11494568 -33.76965332 82.240448 C-29.37588704 71.39993794 -25.01520366 60.54674739 -20.6875 49.6796875 C-20.23944504 48.5555394 -19.79139008 47.4313913 -19.32975769 46.2731781 C-17.140242 40.77934271 -14.95422905 35.2841654 -12.7746582 29.78637695 C-8.77452657 19.72531576 -4.73217419 9.7446432 0 0 Z " fill="#000000" transform="translate(140,82)"/>
</svg>
